<svg width="569" height="476" xmlns="http://www.w3.org/2000/svg"><path d="M0 238v238h569V0H0v238M317.495 37.636c.912.35 2.096 1.788 2.631 3.195 1.315 3.458-1.975 12.305-8.253 22.195-6.41 10.097-6.833 13.363-3.042 23.474 1.65 4.4 4.607 11.6 6.572 16 4.293 9.613 4.645 15.912 1.498 26.763-4.584 15.8-4.355 20.684 1.099 23.443 3.823 1.934 12.377 1.659 14.19-.456.826-.963 3.622-6.25 6.214-11.75 2.592-5.5 5.228-10.9 5.859-12 .684-1.194 1.403-9.861 1.784-21.5.698-21.362 1.901-26.748 7.154-32.031 2.573-2.588 7.39-4.34 9.074-3.299 1.196.739-.253 7.404-2.44 11.229-2.848 4.981-3.857 11.79-4.238 28.601-.359 15.838-1.413 20.996-7.01 34.293-1.423 3.381-2.587 7.02-2.587 8.088 0 2.347 5.405 7.119 8.062 7.119 1.05 0 3.921.538 6.379 1.195 3.966 1.061 4.7.987 6.514-.655 1.125-1.017 2.045-2.367 2.045-2.999 0-.632 1.614-2.699 3.588-4.595 4.516-4.339 7.021-9.158 7.939-15.275 1.518-10.128 5.016-17.479 14.531-30.541a717.241 717.241 0 0010.874-15.433c5.139-7.544 5.436-7.793 8.942-7.5 3.577.299 3.63.369 3.934 5.135.276 4.33-.106 5.37-3.677 10-2.192 2.842-5.717 7.418-7.834 10.168-11.746 15.263-15.649 23.282-16.831 34.583-.639 6.109-2.317 9.588-8.933 18.522-.68.919-.237 2.088 1.5 3.952 4.074 4.373 13.86 11.443 15.839 11.443 4.585 0 16.65-10.622 18.135-15.965.54-1.944.984-7.727.987-12.85.009-13.494 1.449-16.244 15.39-29.383 12.435-11.719 15.434-13.328 18.003-9.66 3.659 5.224.581 10.791-9.801 17.726-2.153 1.439-5.866 5.297-8.25 8.574-3.457 4.751-4.336 6.797-4.336 10.099 0 7.58-2.217 20.911-4.095 24.618-1.019 2.013-3.665 5.752-5.879 8.311-2.214 2.558-4.026 5.036-4.026 5.507 0 2.35 12.542 10.023 16.384 10.023.797 0 4.887-2.3 9.09-5.111 8.266-5.529 9.594-7.239 18.102-23.314 3.468-6.552 6.323-10.675 8.134-11.744 6.561-3.876 24.594-9.931 28.682-9.632 3.818.28 4.13.527 4.418 3.509.298 3.082.023 3.346-7 6.716-17.7 8.493-22.318 13.064-29.204 28.904-3.111 7.155-3.768 7.963-8.435 10.368-2.785 1.435-6.704 4.29-8.711 6.345-3.112 3.187-3.488 4.038-2.553 5.785 1.414 2.642 15.506 14.174 17.32 14.174.761 0 2.918-1.131 4.792-2.514 1.874-1.383 5.224-3.402 7.444-4.487 2.221-1.085 6.5-3.848 9.509-6.139 6.313-4.805 13.966-8.86 16.723-8.86 2.581 0 4.305 1.908 4.305 4.766 0 3.815-1.765 6.077-6.786 8.695-6.62 3.453-24.636 17.776-25.048 19.913-1.196 6.215 16.424 10.926 27.95 7.473 7.808-2.339 46.225 1.733 50.634 5.367 1.735 1.431 1.566 6.279-.272 7.804-1.165.968-4.15 1.065-12.75.417-6.175-.466-19.878-.867-30.451-.891-18.665-.043-19.288.022-21.486 2.22-2.778 2.779-2.009 4.358 4.282 8.787 2.487 1.751 5.746 5.43 7.557 8.53 1.752 2.998 5.901 8 9.22 11.116 8.803 8.265 9.651 15.809 1.778 15.799-4.348-.005-8.148-2.629-15.128-10.443-10.995-12.31-19.359-20.023-24.961-23.02l-5.547-2.967-6.496 6.438c-3.573 3.541-6.496 7.263-6.496 8.271 0 1.008 4.2 6.196 9.334 11.529 10.318 10.718 14.857 17.829 17.081 26.764.812 3.262 2.851 9.891 4.531 14.73 4.35 12.532 3.914 15.702-2.161 15.702-3.514 0-5.943-3.673-8.93-13.5-6.086-20.026-9.502-24.874-31.562-44.797-6.147-5.552-9.491-5.993-19.539-2.577-6.964 2.367-10.754 5.242-10.754 8.159 0 1.066 2.229 5.627 4.953 10.137 6.519 10.793 7.131 12.512 8.136 22.865.469 4.833 1.521 10.233 2.338 12 .817 1.767 2.435 5.792 3.594 8.944 1.16 3.152 2.536 5.995 3.058 6.318 2.02 1.248 5.024 8.729 4.729 11.775-.292 3.011-.514 3.169-4.291 3.041-3.379-.114-4.557-.796-7.774-4.5-5.142-5.921-9.676-15.805-11.404-24.86-4.33-22.685-3.377-20.527-16.601-37.576-6.644-8.566-6.765-8.599-19.11-5.268-5.617 1.515-9.007 3.083-11.352 5.25l-3.344 3.089 1.64 5.5c.901 3.025 2.995 8.408 4.653 11.963 2.672 5.732 2.958 7.229 2.529 13.235-.267 3.725-1.108 7.523-1.869 8.44-1.733 2.087-1.897 16.984-.226 20.455.637 1.324 2.538 5.332 4.224 8.907 1.686 3.575 4.958 9.375 7.271 12.889 3.244 4.931 4.304 7.591 4.641 11.652.398 4.805.209 5.41-2.185 6.979-4.616 3.025-5.413 1.91-21.459-30.02-4.081-8.121-4.564-9.83-4.938-17.5-.338-6.92-.025-9.522 1.685-14 2.236-5.854 2.766-12.471 1.083-13.512-1.452-.897-5.336-8.885-8.016-16.488-1.26-3.575-3.231-7.55-4.378-8.833-1.876-2.097-2.644-2.266-7.587-1.673-9.364 1.122-14.39 2.675-17.25 5.329-2.423 2.248-2.75 3.279-2.75 8.68 0 8.59-1.661 16.627-5.258 25.437-2.737 6.703-3.077 8.637-3.004 17.06.052 5.877.707 11.407 1.719 14.5 4.365 13.34 5.67 34.914 3.07 50.77-1.885 11.505-3.213 14.23-6.931 14.23-4.453 0-5.228-2.223-3.73-10.698 4.09-23.14 3.947-27.929-1.488-49.776-4.703-18.903-4.516-26.887.961-40.876 5.161-13.181 4.713-20.801-1.579-26.897l-3.26-3.157-9.212.597c-7.805.507-9.535.941-11.322 2.843-2.291 2.439-5.908 14.835-5.971 20.464-.051 4.581-3.187 11.363-7.421 16.05-5.286 5.851-6.242 11.903-5.676 35.95.28 11.902-1.204 23.012-3.554 26.597-2.17 3.313-6.244 4.26-8 1.859-1.778-2.432-1.682-6.834.282-12.956 1.191-3.71 1.532-8.096 1.324-17-.56-23.925-.379-25.74 3.251-32.573 4.328-8.147 5.184-9.575 6.995-11.67 1.644-1.902 4.281-11.684 5.352-19.85.612-4.664.453-5.261-1.888-7.103-2.512-1.975-19.784-5.323-27.394-5.31-5.149.009-8.927 4.221-11.216 12.506-1.064 3.85-2.845 9.475-3.959 12.5-1.247 3.386-2.038 8.024-2.058 12.066-.04 7.961-1.641 17.2-3.801 21.934-.878 1.925-4.599 7.55-8.269 12.5-4.515 6.09-7.394 11.186-8.903 15.76-2.3 6.972-4.011 8.74-8.459 8.74-4.233 0-5.083-3.107-3.111-11.379 2.108-8.844 5.258-14.483 12.2-21.842 7.761-8.228 9.303-12.386 10.226-27.587.504-8.29 1.321-13.754 2.356-15.754.872-1.684 2.498-6.625 3.613-10.981l2.029-7.919-2.012-2.142c-1.192-1.27-4.331-2.608-7.704-3.285-5.488-1.102-5.834-1.043-9.664 1.649-2.185 1.536-5.112 4.398-6.503 6.361-1.392 1.963-4.556 6.138-7.031 9.279-2.475 3.14-6.3 8.309-8.5 11.487-2.2 3.177-5.8 7.563-8 9.746-2.2 2.184-5.702 6.197-7.783 8.918-8.888 11.628-12.063 15.204-19.179 21.604-9.256 8.325-10.881 9.267-13.538 7.845-1.435-.768-2-2.094-2-4.691 0-3.243.992-4.611 9.5-13.091 5.225-5.208 9.5-10.12 9.5-10.917 0-.796 3.524-5.127 7.83-9.624 4.307-4.497 9.095-10.202 10.641-12.677 1.547-2.475 4.436-6.356 6.42-8.625 6.54-7.474 10.577-12.714 12.889-16.726l2.279-3.957-2.228-2.372c-1.225-1.304-3.376-2.964-4.78-3.689-13.87-7.159-19.083-9.631-20.31-9.631-.795 0-5.097 3.161-9.561 7.025-8.492 7.35-9.128 8.48-10.687 18.975-.368 2.475-1.365 7.647-2.217 11.494-1.51 6.826-1.783 7.236-11.425 17.159-5.432 5.591-10.52 11.705-11.306 13.586-1.971 4.715-3.776 5.942-8.207 5.576-5.208-.431-6.408-3.708-3.841-10.487 1.359-3.59 4.299-7.264 11.465-14.328C121.846 319.285 124 315.257 124 304.749c0-4.19.469-8.886 1.041-10.434.573-1.548 5.184-6.739 10.246-11.535l9.205-8.719-5.462-5.531c-4.59-4.647-6.026-5.528-8.996-5.515-8.311.035-23.283 5.284-28.534 10.003C99.618 274.71 83.899 283 82.573 283c-.337 0-2.398 1.127-4.579 2.504-2.975 1.878-6.657 2.858-14.73 3.923-5.92.781-12.031 1.904-13.579 2.497-3.738 1.429-8.994 1.367-10.485-.124-1.894-1.894-1.404-5.688 1.05-8.128 1.726-1.715 5.083-2.753 14.416-4.455 16.839-3.07 26.296-6.86 34.099-13.667 4.331-3.778 7.418-5.649 10-6.061 4.49-.717 6.265-1.589 7.626-3.747 2.572-4.077-7.462-7.766-21.006-7.724-6.97.022-20.713 2.327-27.24 4.57-4.214 1.447-28.736 4.709-35.368 4.704-4.066-.003-6.064-2.107-5.357-5.641.986-4.929 2.221-5.651 9.674-5.651 3.767 0 10.124-.664 14.128-1.474 4.003-.811 12.228-2.411 18.278-3.555 6.05-1.144 13.173-2.778 15.829-3.632 4.401-1.415 5.816-1.402 16 .141 20.883 3.166 19.088 3.239 24.244-.986 2.526-2.07 5.08-4.833 5.675-6.139 1.34-2.94-.717-5.377-10.248-12.141-3.575-2.537-9.938-7.561-14.139-11.164-4.202-3.602-11.159-8.797-15.461-11.542-11.774-7.514-13.4-9.109-13.4-13.142 0-2.364.799-4.256 2.528-5.985 3.711-3.711 7.574-2.53 14.972 4.579 3.3 3.17 8.208 7.289 10.906 9.152a663.573 663.573 0 0110 7.079c2.802 2.03 8.718 6.188 13.148 9.24 4.43 3.053 9.351 6.904 10.937 8.56 1.586 1.655 3.572 3.009 4.415 3.009 1.768 0 12.094-9.872 12.094-11.562 0-.622-.672-2.479-1.494-4.126-1.516-3.039-6.506-25.469-6.506-29.245 0-2.496-6.612-10.067-8.791-10.067-.857 0-6.767-2.205-13.133-4.9-6.367-2.695-13.846-5.626-16.621-6.512-6.646-2.124-9.083-3.939-11.405-8.491-2.28-4.468-5.63-17.318-6.576-25.221-.615-5.14-.474-5.763 1.649-7.25 4.714-3.301 7.499-1.163 8.957 6.874 1.397 7.707 6.125 17.653 9.901 20.831 1.624 1.366 6.005 3.474 9.736 4.685 3.73 1.211 13.606 5.565 21.946 9.675 12.09 5.96 15.371 8.015 16.192 10.142.566 1.467 1.178 7.486 1.361 13.375.354 11.44 1.304 13.927 6.846 17.929 3.591 2.593 7.078 1.405 13.998-4.77 3.327-2.968 9.287-7.013 13.244-8.989 7.508-3.748 11.696-6.925 11.696-8.871 0-.629-.7-3.502-1.556-6.385-2.09-7.035-7.061-12.342-14.212-15.174-3.153-1.248-6.407-2.819-7.232-3.49-.825-.672-2.625-1.544-4-1.938-4.836-1.387-15.576-9.309-17.221-12.704-.884-1.824-3.558-9.391-5.943-16.816l-4.336-13.5V82.67c0-17.485.139-18.931 1.941-20.25 2.616-1.914 7.003-1.795 8.687.236 1.026 1.238 1.252 3.946.897 10.75-1.112 21.283-.815 24.133 3.905 37.395 3.922 11.018 4.857 12.726 8.974 16.387 2.528 2.248 6.958 5.145 9.846 6.437 2.887 1.292 6.937 3.39 9 4.661 2.062 1.272 6.675 3.581 10.25 5.132 3.575 1.55 7.066 3.348 7.759 3.995.692.647 1.939 4.731 2.77 9.075.831 4.345 2.247 8.712 3.146 9.706 2.182 2.411 5.583 2.284 7.918-.296 3.36-3.713 7.022-4.856 18.891-5.897 18.48-1.62 20.96-3.295 20.345-13.74-.532-9.024-3.568-14.794-11.767-22.364a1375.988 1375.988 0 01-9.562-8.899c-1.65-1.564-5.475-7.715-8.5-13.67L222.5 90.5V81c0-9.195.141-9.786 4.375-18.408 8.132-16.557 19.207-24.912 23.181-17.487 1.45 2.709.323 5.639-4.105 10.68-2.07 2.356-5.671 7.493-8.001 11.415-3.54 5.96-4.236 7.994-4.236 12.39 0 9.828 10.275 25.76 25.108 38.935 4.875 4.329 7.534 8.946 9.266 16.091.651 2.686 1.573 5.312 2.048 5.834.475.523.864 1.978.864 3.234 0 1.257 1.305 3.745 2.899 5.529 2.863 3.204 3.014 3.246 12.041 3.287 10.854.05 12.225-.875 14.556-9.824.813-3.121 2.663-8.488 4.11-11.926 1.801-4.275 2.654-8.145 2.702-12.25.071-6.056-.607-8.148-8.905-27.5-3.961-9.236-4.019-19.567-.147-26C302.355 58.19 310 42.459 310 40.834c0-3.14 3.62-4.684 7.495-3.198M282 165.165c-8.525.459-17.975 1.324-21 1.923-14.791 2.927-14.194 2.664-20.816 9.176-3.488 3.43-7.483 8.486-8.877 11.236-1.394 2.75-3.097 5.675-3.783 6.5-.686.825-1.955 3.525-2.819 6-.864 2.475-2.837 7.425-4.385 11-2.625 6.063-2.815 7.408-2.817 20-.003 13.287.055 13.638 3.66 22.253 4.118 9.836 11.953 20.862 19.967 28.094 8.427 7.605 20.583 14.894 26.37 15.812 12.781 2.026 15.547 1.984 35.5-.541 11.275-1.427 26.515-3.066 33.866-3.641 14.262-1.116 16.789-1.923 23.794-7.594 5.819-4.713 10.872-11.949 14.347-20.545 1.631-4.036 3.45-8.164 4.042-9.174.591-1.01 1.81-7.584 2.707-14.61 1.511-11.824 1.51-13.621-.007-24.164-1.271-8.832-2.667-13.853-6.214-22.356-2.517-6.032-5.804-12.271-7.305-13.865-3.863-4.102-9.83-6.482-24.634-9.826-7.097-1.603-13.301-3.16-13.786-3.461-.486-.3-4.805-1.182-9.597-1.96-9.355-1.519-14.164-1.551-38.213-.257m-73.674 17.603c-2.296 1.503-6.346 3.991-9 5.53-17.038 9.877-22.736 13.78-31.844 21.812-5.618 4.954-10.709 10.093-11.314 11.421-.605 1.327-2.583 3.033-4.396 3.791-4.906 2.05-13.772 12.157-13.772 15.701 0 4.461 23.044 27.435 32.5 32.403 11.061 5.81 20.11 9.501 32.5 13.255 15.495 4.695 18.07 5.004 20.387 2.444 1.811-2.001 1.766-2.159-2.308-8.127-5.299-7.762-12.694-25.037-14.602-34.109-1.861-8.845-1.851-12.924.065-27.588 1.241-9.489 2.22-13.174 5-18.81 1.902-3.855 3.458-7.618 3.458-8.364 0-.745.972-3.084 2.159-5.197 1.787-3.179 1.939-4.107.878-5.386-1.875-2.259-4.989-1.867-9.711 1.224m184.315 12.076c-1.558 1.722-1.554 2.629.068 13.75.954 6.548 1.735 15.281 1.734 19.406-.002 9.225-2.774 25.3-5.862 34-1.27 3.575-2.87 8.884-3.556 11.798-1.121 4.759-1.065 5.501.551 7.286 1.05 1.16 2.448 1.731 3.361 1.372.86-.338 9.213-2.632 18.563-5.097 18.992-5.008 27.9-9.196 40-18.806 3.85-3.058 8.462-6.702 10.25-8.099 1.788-1.397 3.25-3.457 3.25-4.579 0-3.032-15.379-17.803-40.68-39.071-5.014-4.215-22.363-13.804-24.975-13.804-.569 0-1.786.83-2.704 1.844m-86.426 3.567c2.357.775 6.157 1.708 8.446 2.072 2.288.365 4.959 1.544 5.934 2.622.975 1.078 3.283 2.893 5.128 4.033 4.132 2.554 9.277 12.249 9.277 17.482 0 5.967-5.609 15.79-12.792 22.401-7.262 6.684-10.861 8.608-18.913 10.114-7.467 1.396-16.295.562-23.587-2.228-5.184-1.984-6.274-2.939-10.444-9.156-4.51-6.721-4.67-7.218-5.077-15.727-.521-10.891.689-14.834 6.722-21.903 6.438-7.544 14.093-11.119 23.806-11.12 3.968-.001 9.143.634 11.5 1.41m-4.142 16.224c-1.164 1.479-2.073 4.11-2.073 5.997 0 4.408 5.441 10.533 10.981 12.362 3.929 1.296 4.158 1.247 7.04-1.514 4.326-4.145 4.216-9.894-.271-14.222-5.98-5.768-12.363-6.836-15.677-2.623" fill-rule="evenodd"/></svg>